<?xml version="1.0" encoding="UTF-8" standalone="no"?>
<!-- Created with Inkscape (http://www.inkscape.org/) -->

<svg
   width="15.838mm"
   height="20.878271mm"
   viewBox="0 0 15.838 20.878271"
   version="1.1"
   id="svg282"
   inkscape:version="1.2.2 (b0a8486541, 2022-12-01)"
   sodipodi:docname="logo_caib.svg"
   xmlns:inkscape="http://www.inkscape.org/namespaces/inkscape"
   xmlns:sodipodi="http://sodipodi.sourceforge.net/DTD/sodipodi-0.dtd"
   xmlns="http://www.w3.org/2000/svg"
   xmlns:svg="http://www.w3.org/2000/svg">
  <sodipodi:namedview
     id="namedview284"
     pagecolor="#ffffff"
     bordercolor="#666666"
     borderopacity="1.0"
     inkscape:showpageshadow="2"
     inkscape:pageopacity="0.0"
     inkscape:pagecheckerboard="0"
     inkscape:deskcolor="#d1d1d1"
     inkscape:document-units="mm"
     showgrid="false"
     inkscape:zoom="0.7500982"
     inkscape:cx="-7.9989526"
     inkscape:cy="256.63306"
     inkscape:window-width="1854"
     inkscape:window-height="1011"
     inkscape:window-x="66"
     inkscape:window-y="32"
     inkscape:window-maximized="1"
     inkscape:current-layer="layer1" />
  <defs
     id="defs279" />
  <g
     inkscape:label="Capa 1"
     inkscape:groupmode="layer"
     id="layer1"
     transform="translate(-107.07152,-81.271079)">
    <polygon
       class="st0"
       points="98.16,62.75 98.16,62.88 98.23,62.83 "
       id="polygon4"
       style="fill:#ffffff"
       transform="matrix(0.26458333,0,0,0.26458333,91.177999,78.397704)" />
    <g
       id="g44"
       transform="matrix(0.26458333,0,0,0.26458333,91.177999,78.397704)">
	<g
   id="g42">
		<path
   class="st1"
   d="M 114.49,10.86 H 65.51 c -3.01,0 -5.44,2.44 -5.44,5.44 v 43.54 c 0,16.53 13.4,29.93 29.93,29.93 16.53,0 29.93,-13.4 29.93,-29.93 V 16.3 c 0,-3.01 -2.43,-5.44 -5.44,-5.44 m 2.72,48.98 C 117.21,74.87 105.03,87.05 90,87.05 74.97,87.05 62.79,74.87 62.79,59.84 V 16.3 c 0,-1.51 1.22,-2.72 2.72,-2.72 h 48.98 c 1.5,0 2.72,1.22 2.72,2.72 z"
   id="path6"
   style="fill:#b89d1b" />

		<polygon
   class="st2"
   points="76.39,22.32 76.39,16.3 70.97,16.3 "
   id="polygon8"
   style="fill:#cc142e" />

		<polygon
   class="st3"
   points="76.39,21.74 76.39,16.3 81.84,16.3 81.84,28.37 76.39,22.32 "
   id="polygon10"
   style="fill:#fecd00" />

		<polygon
   class="st2"
   points="81.84,16.3 87.28,16.3 87.28,34.42 81.84,28.37 "
   id="polygon12"
   style="fill:#cc142e" />

		<polygon
   class="st3"
   points="87.28,16.3 92.72,16.3 92.72,40.47 87.28,34.42 "
   id="polygon14"
   style="fill:#fecd00" />

		<polygon
   class="st2"
   points="92.72,16.3 98.16,16.3 98.16,46.53 92.72,40.47 "
   id="polygon16"
   style="fill:#cc142e" />

		<polygon
   class="st3"
   points="103.61,16.3 103.61,48.96 103.61,52.57 98.16,46.53 98.16,44.87 98.16,16.3 "
   id="polygon18"
   style="fill:#fecd00" />

		<polygon
   class="st2"
   points="103.61,16.3 109.05,16.3 109.05,58.62 103.61,52.57 "
   id="polygon20"
   style="fill:#cc142e" />

		<path
   class="st3"
   d="M 109.05,58.62 V 16.3 h 5.44 v 43.54 c 0,1.5 -0.14,2.97 -0.39,4.39 z"
   id="path22"
   style="fill:#fecd00" />

		<path
   class="st3"
   d="m 65.51,59.88 c 0,5.83 2.04,11.19 5.44,15.4 V 37.54 l -5.44,-6.02 z"
   id="path24"
   style="fill:#fecd00" />

		<path
   class="st2"
   d="m 70.95,37.54 v 37.74 c 1.55,1.92 3.39,3.6 5.44,4.97 V 43.51 Z"
   id="path26"
   style="fill:#cc142e" />

		<path
   class="st3"
   d="m 76.39,43.51 v 36.73 c 1.68,1.12 3.5,2.05 5.44,2.73 V 49.48 Z"
   id="path28"
   style="fill:#fecd00" />

		<path
   class="st2"
   d="m 81.84,82.93 c 1.73,0.61 3.56,1.04 5.44,1.24 V 55.46 l -5.44,-5.97 z"
   id="path30"
   style="fill:#cc142e" />

		<path
   class="st3"
   d="m 87.28,80.25 v 3.93 c 0.89,0.1 1.8,0.15 2.72,0.15 0.92,0 1.83,-0.05 2.72,-0.15 V 61.44 l -5.44,-5.98 z"
   id="path32"
   style="fill:#fecd00" />

		<path
   class="st2"
   d="m 98.16,67.43 -5.44,-5.98 v 22.73 c 1.89,-0.21 3.71,-0.63 5.44,-1.24 z"
   id="path34"
   style="fill:#cc142e" />

		<path
   class="st3"
   d="m 98.16,82.93 c 1.94,-0.68 3.76,-1.61 5.44,-2.73 v -6.79 l -5.44,-5.98 z"
   id="path36"
   style="fill:#fecd00" />

		<path
   class="st2"
   d="m 103.61,73.41 v 6.8 c 1.27,-0.85 2.46,-1.82 3.55,-2.89 z"
   id="path38"
   style="fill:#cc142e" />

		<path
   class="st4"
   d="m 109.05,75.24 c 1.88,-2.32 3.33,-4.99 4.27,-7.9 L 110.45,64.18 67.11,16.31 h -1.6 v 11.06 c 0,0 42.43,46.71 42.43,46.7 l 1.09,1.18 z"
   id="path40"
   style="fill:#00508b" />

	</g>

</g>
  </g>
</svg>
