<?xml version="1.0" encoding="utf-8"?>
<!-- Generator: Adobe Illustrator 28.2.0, SVG Export Plug-In . SVG Version: 6.00 Build 0)  -->
<svg version="1.1" id="Capa_1" xmlns="http://www.w3.org/2000/svg" xmlns:xlink="http://www.w3.org/1999/xlink" x="0px" y="0px"
	 viewBox="0 0 255.12 99.21" style="enable-background:new 0 0 255.12 99.21;" xml:space="preserve">
<style type="text/css">
	.st0{fill:#B89D1B;}
	.st1{fill:#CC142E;}
	.st2{fill:#FECD00;}
	.st3{fill:#FFFFFF;}
	.st4{fill:#00508B;}
	.st5{fill:#3C3C3B;}
</style>
<g>
	<g>
		<g>
			<path d="M92.43,27.73v3.48h3.55c0,2.02-0.89,3.88-3.18,3.88c-3.58,0-4.27-3.28-4.27-6.16c0-2.88,0.66-6.16,4.24-6.16
				c1.92,0,2.98,0.91,4.07,2.37l2.87-2.59c-1.89-2.51-3.7-3.79-6.93-3.79c-5.99,0-8.34,4.87-8.34,10.17
				c0,5.21,2.29,10.18,8.22,10.18c1.57,0,2.92-0.4,3.92-1.68v1.45h3.44V27.73H92.43z M114.71,31.86c0-4.19-1.86-7.32-6.42-7.32
				c-4.55,0-6.42,3.14-6.42,7.32c0,4.19,1.86,7.3,6.42,7.3C112.85,39.16,114.71,36.05,114.71,31.86 M110.76,31.86
				c0,1.77-0.34,3.54-2.46,3.54c-2.15,0-2.46-1.77-2.46-3.54c0-1.77,0.31-3.56,2.46-3.56C110.42,28.3,110.76,30.09,110.76,31.86
				 M124.8,24.79l-2.89,8.52l-2.72-8.52H115l5.41,14.08h3.15l5.44-14.08H124.8z M141.5,31.55c0-4.13-2.12-6.98-5.61-6.98
				c-4.3,0-6.59,3.28-6.59,7.3c0,4.05,2.46,7.27,6.73,7.27c2.15,0,3.75-1,5.33-2.57l-2.41-2.36c-0.69,0.71-1.69,1.34-2.89,1.34
				c-1.69,0-2.61-1.2-2.75-2.76h8.19V31.55z M133.34,30.35c0.23-1.31,0.97-2.2,2.38-2.2c1.4,0,2.01,0.94,2.18,2.2H133.34z
				 M152.79,25.51c-1-0.71-1.98-1.08-3.09-1.08c-1.49,0-2.61,0.97-2.61,0.97l-0.14-0.6h-3.15v14.08h3.87v-8.81
				c0-1.2,0.72-1.97,2.03-1.97c0.55,0,1.12,0.17,1.66,0.4L152.79,25.51z M166.62,30.95c0-3.9-1.66-6.47-5.84-6.47
				c-0.92,0-2.03,0.37-2.66,0.88l-0.14-0.57h-3.18v14.08h3.9v-8.52c0-1.11,0.8-2.02,1.92-2.02c1.78,0,2.12,1.17,2.12,2.71v7.84h3.9
				V30.95z M190.04,38.3c-0.06-0.2-0.66-2.02-0.66-2.11V18.98h-3.9v6.1c-0.63-0.4-1.26-0.57-1.95-0.57c-4.41,0-6.02,3.36-6.02,7.3
				c0,3.93,1.58,7.35,6.02,7.35c0.97,0,1.98-0.2,2.81-0.68l0.29,0.83L190.04,38.3z M185.48,33.57c0,1.11-0.83,1.8-1.92,1.8
				c-2.09,0-2.15-1.99-2.15-3.53c0-1.57,0.06-3.56,2.15-3.56c1.09,0,1.92,0.68,1.92,1.8V33.57z M203.96,31.55
				c0-4.13-2.12-6.98-5.62-6.98c-4.3,0-6.59,3.28-6.59,7.3c0,4.05,2.46,7.27,6.73,7.27c2.15,0,3.75-1,5.33-2.57l-2.41-2.36
				c-0.69,0.71-1.69,1.34-2.89,1.34c-1.69,0-2.61-1.2-2.75-2.76h8.19V31.55z M195.79,30.35c0.23-1.31,0.97-2.2,2.38-2.2
				c1.4,0,2.01,0.94,2.18,2.2H195.79z M219.15,35.62c-0.66,0-0.95-0.17-0.95-0.85V18.98h-3.7v15.85c0,3.19,1.72,4.05,4.67,4.05
				L219.15,35.62z M233.35,31.55c0-4.13-2.12-6.98-5.61-6.98c-4.3,0-6.59,3.28-6.59,7.3c0,4.05,2.46,7.27,6.73,7.27
				c2.15,0,3.75-1,5.33-2.57l-2.41-2.36c-0.69,0.71-1.69,1.34-2.89,1.34c-1.69,0-2.61-1.2-2.75-2.76h8.19V31.55z M225.19,30.35
				c0.23-1.31,0.97-2.2,2.38-2.2s2.01,0.94,2.18,2.2H225.19z M246.76,34.57c0-5.07-7.48-3.93-7.48-5.73c0-0.83,1.06-0.97,1.66-0.97
				c0.83,0,1.63,0.45,2.12,1.11l2.98-1.65c-1.43-2.17-2.81-2.82-5.47-2.82c-2.72,0-5.21,1.34-5.21,4.33c0,5.61,7.53,2.54,7.53,5.9
				c0,0.86-1.2,0.97-1.83,0.97c-1.46,0-2.09-0.48-2.43-1.34l-3.38,0.91c0.69,2.93,3.01,3.88,5.87,3.88
				C243.84,39.16,246.76,37.62,246.76,34.57"/>
			<path d="M89.01,50.6h-4.43v21.58h4.43V50.6z M98.06,68.66c-0.71,0-1.02-0.18-1.02-0.93V50.6h-4v17.19c0,3.46,1.86,4.39,5.05,4.39
				L98.06,68.66z M106.37,68.66c-0.71,0-1.02-0.18-1.02-0.93V50.6h-4v17.19c0,3.46,1.86,4.39,5.05,4.39L106.37,68.66z M121.78,64.24
				c0-4.48-2.29-7.57-6.08-7.57c-4.65,0-7.13,3.55-7.13,7.91c0,4.39,2.67,7.88,7.29,7.88c2.33,0,4.06-1.08,5.77-2.78l-2.6-2.57
				c-0.74,0.77-1.83,1.45-3.13,1.45c-1.83,0-2.82-1.3-2.98-3h8.87V64.24z M112.94,62.94c0.25-1.42,1.05-2.38,2.57-2.38
				c1.52,0,2.17,1.02,2.36,2.38H112.94z M136.47,67.51c0-5.5-8.09-4.27-8.09-6.21c0-0.9,1.15-1.05,1.8-1.05
				c0.9,0,1.77,0.5,2.29,1.21l3.22-1.79c-1.55-2.35-3.04-3.06-5.92-3.06c-2.95,0-5.64,1.45-5.64,4.7c0,5.35,8.15,4.17,8.15,6.4
				c0,0.93-1.3,1.05-1.98,1.05c-1.58,0-2.26-0.52-2.63-1.45l-3.66,0.99c0.74,3.18,3.25,4.2,6.36,4.2
				C133.31,72.49,136.47,70.82,136.47,67.51 M166.33,65.6c0-1.86-0.71-3.71-2.29-4.76c1.02-0.99,1.55-2.44,1.55-3.86
				c0-4.58-3.32-6.37-7.47-6.37h-7.94v21.58h8.43C162.99,72.18,166.33,70.39,166.33,65.6 M161.25,57c0,2.01-1.4,2.32-3.07,2.32
				h-3.57v-4.51h3.57C159.82,54.81,161.25,55.05,161.25,57 M161.9,65.63c0,2.13-1.52,2.38-3.29,2.38h-4v-4.79h4
				C160.38,63.22,161.9,63.49,161.9,65.63 M181.03,69.3v-7.76c0-2.97-2.91-4.82-5.67-4.82c-2.94,0-5.3,1.17-6.17,3.96l3.57,1.24
				c0.46-1.05,1.43-1.45,2.6-1.45c0.96,0,1.74,0.52,1.74,1.42v0.43c0,0.18-0.12,0.37-0.53,0.4c0,0-1.3-0.03-2.33,0
				c-3.88,0.22-5.58,2.07-5.58,4.85c0,3.25,2.67,5.01,5.67,5.01c1.12,0,2.48-0.34,3.38-1.02l0.31,0.99l3.63-0.93L181.03,69.3z
				 M177.09,68.13c-0.78,0.62-1.67,0.96-2.67,0.96c-0.84,0-1.99-0.49-1.99-1.51c0-1.33,0.99-1.82,2.14-1.85h1.74
				c0.31,0,0.56-0.06,0.78-0.22V68.13z M189.68,68.66c-0.71,0-1.02-0.18-1.02-0.93V50.6h-4v17.19c0,3.46,1.86,4.39,5.05,4.39
				L189.68,68.66z M205.09,64.24c0-4.48-2.29-7.57-6.08-7.57c-4.65,0-7.13,3.55-7.13,7.91c0,4.39,2.67,7.88,7.29,7.88
				c2.33,0,4.06-1.08,5.77-2.78l-2.6-2.57c-0.74,0.77-1.83,1.45-3.13,1.45c-1.83,0-2.82-1.3-2.98-3h8.87V64.24z M196.25,62.94
				c0.25-1.42,1.06-2.38,2.57-2.38c1.52,0,2.17,1.02,2.36,2.38H196.25z M219.63,69.3v-7.76c0-2.97-2.91-4.82-5.67-4.82
				c-2.95,0-5.3,1.17-6.17,3.96l3.57,1.24c0.46-1.05,1.43-1.45,2.6-1.45c0.96,0,1.74,0.52,1.74,1.42v0.43c0,0.18-0.12,0.37-0.53,0.4
				c0,0-1.3-0.03-2.33,0c-3.88,0.22-5.58,2.07-5.58,4.85c0,3.25,2.67,5.01,5.67,5.01c1.12,0,2.48-0.34,3.38-1.02l0.31,0.99
				l3.63-0.93L219.63,69.3z M215.69,68.13c-0.78,0.62-1.67,0.96-2.67,0.96c-0.84,0-1.99-0.49-1.99-1.51c0-1.33,0.99-1.82,2.14-1.85
				h1.74c0.31,0,0.56-0.06,0.78-0.22V68.13z M233.15,57.68c-1.08-0.77-2.14-1.18-3.35-1.18c-1.61,0-2.82,1.05-2.82,1.05l-0.15-0.65
				h-3.41v15.27h4.19v-9.55c0-1.3,0.77-2.13,2.2-2.13c0.59,0,1.21,0.18,1.8,0.43L233.15,57.68z M246.76,67.51
				c0-5.5-8.09-4.27-8.09-6.21c0-0.9,1.15-1.05,1.8-1.05c0.9,0,1.77,0.5,2.29,1.21l3.22-1.79c-1.55-2.35-3.04-3.06-5.92-3.06
				c-2.95,0-5.64,1.45-5.64,4.7c0,5.35,8.15,4.17,8.15,6.4c0,0.93-1.3,1.05-1.98,1.05c-1.58,0-2.26-0.52-2.64-1.45l-3.66,0.99
				c0.74,3.18,3.26,4.2,6.36,4.2C243.6,72.49,246.76,70.82,246.76,67.51"/>
			<path class="st0" d="M62.53,10.34H13.78c-2.99,0-5.42,2.42-5.42,5.42v43.33c0,16.45,13.34,29.79,29.79,29.79
				c16.45,0,29.79-13.34,29.79-29.79V15.75C67.94,12.76,65.52,10.34,62.53,10.34 M65.23,59.09c0,14.96-12.13,27.08-27.08,27.08
				c-14.96,0-27.08-12.12-27.08-27.08V15.75c0-1.5,1.21-2.71,2.71-2.71h48.75c1.5,0,2.71,1.21,2.71,2.71V59.09z"/>
		</g>
		<polygon class="st1" points="24.61,15.75 19.21,15.75 24.61,21.74 		"/>
		<polygon class="st2" points="24.61,21.17 24.61,15.75 30.03,15.75 30.03,27.76 24.61,21.74 		"/>
		<polygon class="st1" points="30.03,15.75 35.44,15.75 35.44,33.78 30.03,27.76 		"/>
		<polygon class="st2" points="35.44,15.75 40.86,15.75 40.86,39.81 35.44,33.78 		"/>
		<polygon class="st1" points="40.86,15.75 46.28,15.75 46.28,45.84 40.86,39.81 		"/>
		<polygon class="st2" points="46.28,44.19 46.28,15.75 51.69,15.75 51.69,48.25 51.69,51.85 46.28,45.84 		"/>
		<polygon class="st1" points="51.69,15.75 57.11,15.75 57.11,57.87 51.69,51.85 		"/>
		<g>
			<path class="st2" d="M57.11,57.87V15.75h5.42v43.34c0,1.49-0.13,2.95-0.39,4.37L57.11,57.87z"/>
			<path class="st2" d="M13.78,59.12c0,5.8,2.03,11.14,5.42,15.32V36.89l-5.42-5.99V59.12z"/>
			<path class="st1" d="M19.19,36.89v37.56c1.55,1.91,3.37,3.58,5.42,4.95V42.83L19.19,36.89z"/>
			<path class="st2" d="M24.61,42.83v36.56c1.67,1.12,3.49,2.04,5.42,2.72V48.78L24.61,42.83z"/>
			<path class="st1" d="M30.03,82.06c1.73,0.61,3.54,1.03,5.42,1.24V54.72l-5.42-5.95V82.06z"/>
			<path class="st2" d="M35.44,79.4v3.92c0.89,0.1,1.79,0.15,2.71,0.15c0.92,0,1.82-0.05,2.71-0.15V60.68l-5.42-5.96V79.4z"/>
			<path class="st1" d="M46.28,66.63l-5.42-5.96V83.3c1.88-0.21,3.69-0.63,5.42-1.24V66.63z"/>
		</g>
		<polygon class="st3" points="46.28,62.57 46.35,62.52 46.28,62.44 		"/>
		<g>
			<path class="st2" d="M46.28,82.07c1.93-0.68,3.75-1.6,5.42-2.72v-6.76l-5.42-5.96V82.07z"/>
			<path class="st1" d="M51.69,72.59v6.77c1.27-0.85,2.45-1.81,3.54-2.88L51.69,72.59z"/>
			<path class="st4" d="M57.11,74.41c1.87-2.31,3.32-4.97,4.25-7.86L58.5,63.4L15.37,15.76l-1.59,0v11.01
				c0,0,42.23,46.48,42.23,46.48l1.08,1.17L57.11,74.41z"/>
		</g>
	</g>
</g>
</svg>
