<?xml version="1.0" encoding="utf-8"?>
<!-- Generator: Adobe Illustrator 25.4.1, SVG Export Plug-In . SVG Version: 6.00 Build 0)  -->
<svg version="1.1" id="Capa_1" xmlns="http://www.w3.org/2000/svg" xmlns:xlink="http://www.w3.org/1999/xlink" x="0px" y="0px"
	 viewBox="0 0 180 176" style="enable-background:new 0 0 180 176;" xml:space="preserve">
<style type="text/css">
	.st0{fill:#FFFFFF;}
	.st1{fill:#B89D1B;}
	.st2{fill:#CC142E;}
	.st3{fill:#FECD00;}
	.st4{fill:#00508B;}
	.st5{fill:#3C3C3B;}
</style>
<polygon class="st0" points="98.16,62.88 98.23,62.83 98.16,62.75 "/>
<g>
	<g>
		<path class="st1" d="M114.49,10.86H65.51c-3.01,0-5.44,2.44-5.44,5.44v43.54c0,16.53,13.4,29.93,29.93,29.93
			c16.53,0,29.93-13.4,29.93-29.93V16.3C119.93,13.29,117.5,10.86,114.49,10.86 M117.21,59.84c0,15.03-12.18,27.21-27.21,27.21
			c-15.03,0-27.21-12.18-27.21-27.21V16.3c0-1.51,1.22-2.72,2.72-2.72h48.98c1.5,0,2.72,1.22,2.72,2.72V59.84z"/>
		<polygon class="st2" points="76.39,16.3 70.97,16.3 76.39,22.32 		"/>
		<polygon class="st3" points="76.39,21.74 76.39,16.3 81.84,16.3 81.84,28.37 76.39,22.32 		"/>
		<polygon class="st2" points="81.84,16.3 87.28,16.3 87.28,34.42 81.84,28.37 		"/>
		<polygon class="st3" points="87.28,16.3 92.72,16.3 92.72,40.47 87.28,34.42 		"/>
		<polygon class="st2" points="92.72,16.3 98.16,16.3 98.16,46.53 92.72,40.47 		"/>
		<polygon class="st3" points="98.16,44.87 98.16,16.3 103.61,16.3 103.61,48.96 103.61,52.57 98.16,46.53 		"/>
		<polygon class="st2" points="103.61,16.3 109.05,16.3 109.05,58.62 103.61,52.57 		"/>
		<path class="st3" d="M109.05,58.62V16.3h5.44v43.54c0,1.5-0.14,2.97-0.39,4.39L109.05,58.62z"/>
		<path class="st3" d="M65.51,59.88c0,5.83,2.04,11.19,5.44,15.4V37.54l-5.44-6.02V59.88z"/>
		<path class="st2" d="M70.95,37.54v37.74c1.55,1.92,3.39,3.6,5.44,4.97V43.51L70.95,37.54z"/>
		<path class="st3" d="M76.39,43.51v36.73c1.68,1.12,3.5,2.05,5.44,2.73V49.48L76.39,43.51z"/>
		<path class="st2" d="M81.84,82.93c1.73,0.61,3.56,1.04,5.44,1.24V55.46l-5.44-5.97V82.93z"/>
		<path class="st3" d="M87.28,80.25v3.93c0.89,0.1,1.8,0.15,2.72,0.15c0.92,0,1.83-0.05,2.72-0.15V61.44l-5.44-5.98V80.25z"/>
		<path class="st2" d="M98.16,67.43l-5.44-5.98v22.73c1.89-0.21,3.71-0.63,5.44-1.24V67.43z"/>
		<path class="st3" d="M98.16,82.93c1.94-0.68,3.76-1.61,5.44-2.73v-6.79l-5.44-5.98V82.93z"/>
		<path class="st2" d="M103.61,73.41v6.8c1.27-0.85,2.46-1.82,3.55-2.89L103.61,73.41z"/>
		<path class="st4" d="M109.05,75.24c1.88-2.32,3.33-4.99,4.27-7.9l-2.87-3.16L67.11,16.31l-1.6,0v11.06c0,0,42.43,46.71,42.43,46.7
			l1.09,1.18L109.05,75.24z"/>
	</g>
	<path d="M16.83,120.29v3.48h3.55c0,2.02-0.89,3.88-3.18,3.88c-3.58,0-4.27-3.28-4.27-6.16c0-2.88,0.66-6.16,4.24-6.16
		c1.92,0,2.98,0.91,4.07,2.36l2.87-2.59c-1.89-2.51-3.7-3.79-6.93-3.79c-5.99,0-8.34,4.87-8.34,10.18c0,5.21,2.29,10.17,8.22,10.17
		c1.57,0,2.92-0.4,3.92-1.68v1.45h3.44v-11.14H16.83z M39.12,124.42c0-4.19-1.86-7.32-6.42-7.32c-4.55,0-6.42,3.14-6.42,7.32
		c0,4.19,1.86,7.3,6.42,7.3C37.26,131.72,39.12,128.61,39.12,124.42 M35.16,124.42c0,1.77-0.34,3.54-2.46,3.54
		c-2.15,0-2.46-1.77-2.46-3.54c0-1.77,0.31-3.56,2.46-3.56C34.82,120.86,35.16,122.65,35.16,124.42 M49.2,117.35l-2.89,8.52
		l-2.72-8.52H39.4l5.41,14.08h3.15l5.44-14.08H49.2z M65.9,124.11c0-4.13-2.12-6.98-5.61-6.98c-4.3,0-6.59,3.28-6.59,7.3
		c0,4.05,2.46,7.27,6.73,7.27c2.15,0,3.75-1,5.33-2.57l-2.41-2.37c-0.69,0.71-1.69,1.34-2.89,1.34c-1.69,0-2.61-1.2-2.75-2.76h8.19
		V124.11z M57.74,122.91c0.23-1.31,0.97-2.2,2.38-2.2s2.01,0.94,2.18,2.2H57.74z M77.19,118.06c-1-0.71-1.98-1.08-3.09-1.08
		c-1.49,0-2.61,0.97-2.61,0.97l-0.14-0.6H68.2v14.08h3.87v-8.81c0-1.2,0.72-1.97,2.03-1.97c0.54,0,1.12,0.17,1.66,0.4L77.19,118.06z
		 M91.03,123.51c0-3.9-1.66-6.47-5.84-6.47c-0.92,0-2.03,0.37-2.66,0.88l-0.14-0.57H79.2v14.08h3.9v-8.52c0-1.11,0.8-2.02,1.92-2.02
		c1.78,0,2.12,1.17,2.12,2.71v7.84h3.9V123.51z M114.44,130.86c-0.06-0.2-0.66-2.02-0.66-2.11v-17.21h-3.9v6.1
		c-0.63-0.4-1.26-0.57-1.95-0.57c-4.41,0-6.02,3.36-6.02,7.3c0,3.93,1.58,7.35,6.02,7.35c0.97,0,1.98-0.2,2.81-0.68l0.29,0.83
		L114.44,130.86z M109.88,126.13c0,1.11-0.83,1.8-1.92,1.8c-2.09,0-2.15-1.99-2.15-3.53c0-1.57,0.06-3.56,2.15-3.56
		c1.09,0,1.92,0.68,1.92,1.8V126.13z M128.36,124.11c0-4.13-2.12-6.98-5.61-6.98c-4.3,0-6.59,3.28-6.59,7.3
		c0,4.05,2.46,7.27,6.73,7.27c2.15,0,3.75-1,5.33-2.57l-2.41-2.37c-0.69,0.71-1.69,1.34-2.89,1.34c-1.69,0-2.61-1.2-2.75-2.76h8.19
		V124.11z M120.2,122.91c0.23-1.31,0.97-2.2,2.38-2.2c1.4,0,2.01,0.94,2.18,2.2H120.2z M143.55,128.18c-0.66,0-0.95-0.17-0.95-0.86
		v-15.79h-3.7v15.85c0,3.19,1.72,4.05,4.67,4.05L143.55,128.18z M157.76,124.11c0-4.13-2.12-6.98-5.62-6.98
		c-4.3,0-6.59,3.28-6.59,7.3c0,4.05,2.46,7.27,6.73,7.27c2.15,0,3.75-1,5.33-2.57l-2.41-2.37c-0.69,0.71-1.69,1.34-2.89,1.34
		c-1.69,0-2.61-1.2-2.75-2.76h8.19V124.11z M149.59,122.91c0.23-1.31,0.97-2.2,2.38-2.2c1.4,0,2.01,0.94,2.18,2.2H149.59z
		 M171.16,127.13c0-5.07-7.48-3.93-7.48-5.73c0-0.83,1.06-0.97,1.66-0.97c0.83,0,1.63,0.46,2.12,1.11l2.98-1.65
		c-1.43-2.17-2.81-2.82-5.47-2.82c-2.72,0-5.21,1.34-5.21,4.33c0,5.61,7.54,2.54,7.54,5.9c0,0.85-1.2,0.97-1.83,0.97
		c-1.46,0-2.09-0.48-2.43-1.34l-3.38,0.91c0.69,2.93,3.01,3.88,5.87,3.88C168.24,131.72,171.16,130.18,171.16,127.13"/>
	<path d="M13.41,143.16H8.98v21.58h4.43V143.16z M22.46,161.22c-0.71,0-1.02-0.18-1.02-0.93v-17.12h-4v17.19
		c0,3.46,1.86,4.39,5.05,4.39L22.46,161.22z M30.77,161.22c-0.71,0-1.02-0.18-1.02-0.93v-17.12h-4v17.19c0,3.46,1.86,4.39,5.05,4.39
		L30.77,161.22z M46.18,156.8c0-4.48-2.29-7.57-6.08-7.57c-4.65,0-7.13,3.55-7.13,7.91c0,4.39,2.67,7.88,7.29,7.88
		c2.33,0,4.06-1.08,5.77-2.78l-2.6-2.57c-0.74,0.77-1.83,1.45-3.13,1.45c-1.83,0-2.82-1.3-2.98-3h8.87V156.8z M37.35,155.5
		c0.25-1.42,1.05-2.38,2.57-2.38c1.52,0,2.17,1.02,2.36,2.38H37.35z M60.88,160.07c0-5.5-8.09-4.27-8.09-6.21
		c0-0.9,1.15-1.05,1.8-1.05c0.9,0,1.77,0.5,2.29,1.21l3.22-1.79c-1.55-2.35-3.04-3.06-5.92-3.06c-2.95,0-5.64,1.45-5.64,4.7
		c0,5.35,8.15,4.17,8.15,6.4c0,0.93-1.3,1.05-1.99,1.05c-1.58,0-2.26-0.52-2.63-1.45l-3.66,0.99c0.74,3.18,3.26,4.21,6.36,4.21
		C57.71,165.05,60.88,163.38,60.88,160.07 M90.74,158.16c0-1.85-0.71-3.71-2.29-4.76c1.02-0.99,1.55-2.44,1.55-3.87
		c0-4.57-3.32-6.37-7.47-6.37h-7.94v21.58h8.43C87.39,164.74,90.74,162.95,90.74,158.16 M85.65,149.56c0,2.01-1.39,2.32-3.07,2.32
		h-3.57v-4.51h3.57C84.23,147.37,85.65,147.61,85.65,149.56 M86.31,158.19c0,2.13-1.52,2.38-3.29,2.38h-4v-4.79h4
		C84.79,155.78,86.31,156.05,86.31,158.19 M105.43,161.86v-7.76c0-2.97-2.91-4.82-5.67-4.82c-2.95,0-5.3,1.17-6.17,3.96l3.57,1.24
		c0.46-1.05,1.43-1.45,2.6-1.45c0.96,0,1.74,0.52,1.74,1.42v0.43c0,0.18-0.12,0.37-0.53,0.4c0,0-1.3-0.03-2.32,0
		c-3.88,0.22-5.58,2.07-5.58,4.85c0,3.25,2.67,5.01,5.67,5.01c1.11,0,2.48-0.34,3.38-1.02l0.31,0.99l3.63-0.93L105.43,161.86z
		 M101.5,160.69c-0.78,0.62-1.67,0.96-2.67,0.96c-0.84,0-1.98-0.49-1.98-1.51c0-1.33,0.99-1.82,2.14-1.85h1.74
		c0.31,0,0.56-0.06,0.78-0.22V160.69z M114.08,161.22c-0.71,0-1.02-0.18-1.02-0.93v-17.12h-4v17.19c0,3.46,1.86,4.39,5.05,4.39
		L114.08,161.22z M129.49,156.8c0-4.48-2.29-7.57-6.08-7.57c-4.65,0-7.13,3.55-7.13,7.91c0,4.39,2.67,7.88,7.29,7.88
		c2.32,0,4.06-1.08,5.77-2.78l-2.6-2.57c-0.74,0.77-1.83,1.45-3.13,1.45c-1.83,0-2.82-1.3-2.98-3h8.87V156.8z M120.66,155.5
		c0.25-1.42,1.05-2.38,2.57-2.38c1.52,0,2.17,1.02,2.36,2.38H120.66z M144.03,161.86v-7.76c0-2.97-2.91-4.82-5.67-4.82
		c-2.95,0-5.3,1.17-6.17,3.96l3.57,1.24c0.46-1.05,1.42-1.45,2.6-1.45c0.96,0,1.74,0.52,1.74,1.42v0.43c0,0.18-0.12,0.37-0.53,0.4
		c0,0-1.3-0.03-2.32,0c-3.88,0.22-5.58,2.07-5.58,4.85c0,3.25,2.67,5.01,5.67,5.01c1.12,0,2.48-0.34,3.38-1.02l0.31,0.99l3.63-0.93
		L144.03,161.86z M140.1,160.69c-0.78,0.62-1.67,0.96-2.67,0.96c-0.84,0-1.98-0.49-1.98-1.51c0-1.33,0.99-1.82,2.14-1.85h1.74
		c0.31,0,0.56-0.06,0.78-0.22V160.69z M157.55,150.24c-1.08-0.77-2.14-1.18-3.35-1.18c-1.61,0-2.82,1.05-2.82,1.05l-0.15-0.65h-3.41
		v15.27H152v-9.55c0-1.3,0.77-2.13,2.2-2.13c0.59,0,1.21,0.19,1.8,0.43L157.55,150.24z M171.16,160.07c0-5.5-8.09-4.27-8.09-6.21
		c0-0.9,1.15-1.05,1.8-1.05c0.9,0,1.77,0.5,2.29,1.21l3.22-1.79c-1.55-2.35-3.04-3.06-5.92-3.06c-2.94,0-5.64,1.45-5.64,4.7
		c0,5.35,8.15,4.17,8.15,6.4c0,0.93-1.3,1.05-1.98,1.05c-1.58,0-2.26-0.52-2.64-1.45l-3.66,0.99c0.74,3.18,3.26,4.21,6.36,4.21
		C168,165.05,171.16,163.38,171.16,160.07"/>
</g>
</svg>
