<?xml version="1.0" encoding="UTF-8"?><svg id="Capa_1" xmlns="http://www.w3.org/2000/svg" viewBox="0 0 420.94 297.64"><defs><style>.cls-1{fill:none;}.cls-1,.cls-2,.cls-3{stroke-width:0px;}.cls-2{fill:#333332;}.cls-3{fill:#f99135;}</style></defs><path class="cls-3" d="M72.96,144.24v-71.41h29.99c4.42,0,8.31.76,11.68,2.29,3.37,1.53,5.98,3.72,7.85,6.58,1.87,2.86,2.81,6.26,2.81,10.2v1.12c0,4.49-1.07,8.08-3.21,10.76-2.14,2.69-4.74,4.58-7.8,5.66v1.63c2.58.14,4.66,1,6.22,2.6,1.57,1.6,2.35,3.9,2.35,6.89v23.67h-11.12v-22.14c0-1.84-.48-3.3-1.43-4.39-.95-1.09-2.48-1.63-4.59-1.63h-21.73v28.16h-11.02ZM83.98,106.08h17.75c3.94,0,7-1,9.18-3.01,2.18-2,3.26-4.74,3.26-8.21v-.82c0-3.47-1.07-6.21-3.21-8.21-2.14-2.01-5.22-3.01-9.23-3.01h-17.75v23.26Z"/><path class="cls-3" d="M143.04,87.11c-2.04,0-3.76-.66-5.15-1.99-1.4-1.33-2.09-3.04-2.09-5.15s.7-3.83,2.09-5.15c1.39-1.33,3.11-1.99,5.15-1.99s3.84.66,5.2,1.99c1.36,1.32,2.04,3.04,2.04,5.15s-.68,3.83-2.04,5.15-3.09,1.99-5.2,1.99ZM137.74,144.24v-50.3h10.51v50.3h-10.51Z"/><path class="cls-3" d="M163.85,164.64v-70.7h10.31v7.24h1.63c1.29-2.25,3.25-4.25,5.87-6.02,2.62-1.77,6.38-2.65,11.27-2.65,4.22,0,8.08,1.02,11.58,3.06,3.5,2.04,6.32,4.98,8.47,8.83s3.21,8.49,3.21,13.93v1.53c0,5.44-1.06,10.08-3.16,13.93-2.11,3.84-4.93,6.78-8.47,8.83-3.54,2.04-7.41,3.06-11.63,3.06-3.26,0-6.02-.41-8.26-1.22-2.25-.82-4.05-1.85-5.41-3.11-1.36-1.26-2.45-2.57-3.26-3.93h-1.63v27.24h-10.51ZM189.87,136.48c4.62,0,8.4-1.46,11.32-4.39,2.92-2.93,4.39-7.11,4.39-12.55v-.92c0-5.37-1.48-9.52-4.44-12.45-2.96-2.92-6.72-4.39-11.27-4.39s-8.21,1.46-11.17,4.39c-2.96,2.93-4.44,7.08-4.44,12.45v.92c0,5.44,1.48,9.62,4.44,12.55s6.68,4.39,11.17,4.39Z"/><path class="cls-3" d="M252.31,145.67c-5.1,0-9.56-1.07-13.37-3.21-3.81-2.14-6.78-5.17-8.93-9.08s-3.21-8.45-3.21-13.62v-1.23c0-5.24,1.05-9.81,3.16-13.72,2.11-3.91,5.05-6.94,8.83-9.08s8.14-3.21,13.11-3.21,9.06,1.07,12.7,3.21c3.64,2.14,6.48,5.12,8.52,8.93,2.04,3.81,3.06,8.26,3.06,13.37v3.98h-38.66c.13,4.42,1.61,7.94,4.44,10.56,2.82,2.62,6.34,3.93,10.56,3.93,3.94,0,6.92-.88,8.93-2.65,2.01-1.77,3.55-3.81,4.64-6.12l8.67,4.49c-.95,1.9-2.33,3.91-4.13,6.02-1.8,2.11-4.17,3.88-7.09,5.31-2.93,1.43-6.67,2.14-11.22,2.14ZM237.61,113.94h27.85c-.27-3.81-1.63-6.78-4.08-8.93-2.45-2.14-5.65-3.21-9.59-3.21s-7.16,1.07-9.64,3.21-4,5.12-4.54,8.93Z"/><path class="cls-3" d="M304.44,145.67c-3.61,0-6.82-.61-9.64-1.84s-5.07-3.03-6.73-5.41c-1.67-2.38-2.5-5.27-2.5-8.67s.83-6.34,2.5-8.62c1.66-2.28,3.94-4,6.84-5.15,2.89-1.16,6.17-1.73,9.84-1.73h15.3v-3.26c0-2.93-.88-5.27-2.65-7.04-1.77-1.77-4.49-2.65-8.16-2.65s-6.36.85-8.26,2.55c-1.9,1.7-3.16,3.91-3.78,6.63l-9.79-3.16c.82-2.72,2.13-5.18,3.93-7.39,1.8-2.21,4.2-4,7.19-5.36,2.99-1.36,6.6-2.04,10.81-2.04,6.53,0,11.66,1.67,15.4,5s5.61,8.06,5.61,14.18v20.71c0,2.04.95,3.06,2.86,3.06h4.29v8.77h-7.85c-2.38,0-4.32-.61-5.82-1.84-1.5-1.22-2.25-2.89-2.25-5v-.31h-1.53c-.54,1.02-1.36,2.21-2.45,3.57-1.09,1.36-2.69,2.53-4.79,3.52s-4.9,1.48-8.37,1.48ZM305.97,136.99c4.22,0,7.62-1.21,10.2-3.62,2.59-2.41,3.88-5.73,3.88-9.95v-1.02h-14.69c-2.79,0-5.03.6-6.73,1.78-1.7,1.19-2.55,2.94-2.55,5.25s.88,4.15,2.65,5.51c1.77,1.36,4.18,2.04,7.24,2.04Z"/><path class="cls-3" d="M318.46,42.65H99.15c-36.3,0-65.84,29.54-65.84,65.84v141.34c0,2.85,2.31,5.16,5.16,5.16s5.16-2.31,5.16-5.16V108.49c0-30.61,24.91-55.52,55.52-55.52h219.31c32.46,0,58.86,26.41,58.86,58.86s-26.41,58.86-58.86,58.86h-130.29c-2.85,0-5.16,2.31-5.16,5.16s2.31,5.16,5.16,5.16h130.29c38.15,0,69.18-31.03,69.18-69.18s-31.03-69.18-69.18-69.18Z"/><path class="cls-2" d="M66.76,246.2h4.7v-25.16h-4.7v-4.75h13.87c9.21,0,14.31,4.66,14.31,14.11v6.49c0,9.41-5.1,14.07-14.31,14.07h-13.87v-4.75ZM80.68,246.1c5.94,0,8.91-3.02,8.91-9.06v-6.83c0-6.04-2.97-9.01-8.91-9.01h-3.86v24.91h3.86Z"/><path class="cls-2" d="M100.98,216.28h14.56c6.44,0,10.85,3.57,10.85,9.26v.54c0,4.36-2.38,6.88-5.35,7.97v.79c2.53.15,4.16,1.73,4.16,4.61v11.49h-5.35v-10.75c0-1.78-.89-2.92-2.97-2.92h-10.55v13.67h-5.35v-34.67ZM114.95,232.43c3.81,0,6.04-2.03,6.04-5.45v-.4c0-3.37-2.13-5.45-6.04-5.45h-8.62v11.29h8.62Z"/><path class="cls-2" d="M139.61,216.28h9.41l9.86,34.67h-5.5l-2.28-8.17h-13.57l-2.28,8.17h-5.5l9.86-34.67ZM149.77,237.83l-5.05-18.23h-.79l-5.05,18.23h10.9Z"/><path class="cls-2" d="M161.95,239.61v-1.24h5.3v1.24c0,4.95,3.17,7.33,8.07,7.33s7.48-2.33,7.48-5.6-2.77-4.46-7.33-5.5l-1.83-.45c-6.69-1.54-10.9-3.91-10.9-10s4.8-9.81,11.99-9.81,12.58,3.71,12.58,10.99v1.78h-5.3v-1.78c0-4.46-2.92-6.29-7.28-6.29s-6.69,1.83-6.69,4.95,2.33,4.41,6.74,5.4l1.83.45c6.69,1.49,11.49,3.91,11.49,10.15s-5,10.4-12.78,10.4-13.37-4.26-13.37-12.03Z"/><path class="cls-2" d="M192.16,239.61v-1.24h5.3v1.24c0,4.95,3.17,7.33,8.07,7.33s7.48-2.33,7.48-5.6-2.77-4.46-7.33-5.5l-1.83-.45c-6.69-1.54-10.9-3.91-10.9-10s4.8-9.81,11.99-9.81,12.58,3.71,12.58,10.99v1.78h-5.3v-1.78c0-4.46-2.92-6.29-7.28-6.29s-6.69,1.83-6.69,4.95,2.33,4.41,6.74,5.4l1.83.45c6.69,1.49,11.49,3.91,11.49,10.15s-5,10.4-12.78,10.4-13.37-4.26-13.37-12.03Z"/><path class="cls-2" d="M231.24,216.28h9.41l9.86,34.67h-5.5l-2.28-8.17h-13.57l-2.28,8.17h-5.5l9.86-34.67ZM241.39,237.83l-5.05-18.23h-.79l-5.05,18.23h10.9Z"/><path class="cls-2" d="M255.21,216.28h10.3l9.41,31.1h.79v-31.1h5.3v34.67h-10.3l-9.41-31.15h-.79v31.15h-5.3v-34.67Z"/><path class="cls-2" d="M295.57,216.28h9.41l9.86,34.67h-5.5l-2.28-8.17h-13.57l-2.28,8.17h-5.5l9.86-34.67ZM305.72,237.83l-5.05-18.23h-.79l-5.05,18.23h10.9Z"/><rect class="cls-1" width="420.94" height="297.64"/></svg>